# 3ds Max Wavefront OBJ Exporter v0.97b - (c)2007 guruware
# File Created: 02.10.2019 23:33:13

#
# object Object001
#

v  0.6982 42.1830 -0.6982
v  0.0000 42.1830 -0.9874
v  0.0000 42.7424 -1.8245
v  1.2901 42.7424 -1.2901
v  -0.6982 42.1830 -0.6982
v  -1.2901 42.7424 -1.2901
v  -0.9874 42.1830 0.0000
v  -1.8245 42.7424 0.0000
v  -0.6982 42.1830 0.6982
v  -1.2901 42.7424 1.2901
v  0.0000 42.1830 0.9874
v  0.0000 42.7424 1.8245
v  0.6982 42.1830 0.6982
v  1.2901 42.7424 1.2901
v  0.9874 42.1830 0.0000
v  1.8245 42.7424 0.0000
v  0.0000 43.5795 -2.3839
v  1.6857 43.5795 -1.6857
v  -1.6857 43.5795 -1.6857
v  -2.3839 43.5795 0.0000
v  -1.6857 43.5795 1.6857
v  0.0000 43.5795 2.3839
v  1.6857 43.5795 1.6857
v  2.3839 43.5795 0.0000
v  0.0000 44.5669 -2.5803
v  1.8245 44.5669 -1.8245
v  -1.8245 44.5669 -1.8245
v  -2.5803 44.5669 0.0000
v  -1.8245 44.5669 1.8245
v  0.0000 44.5669 2.5803
v  1.8245 44.5669 1.8245
v  2.5803 44.5669 0.0000
v  0.0000 45.5543 -2.3839
v  1.6857 45.5543 -1.6857
v  -1.6857 45.5543 -1.6857
v  -2.3839 45.5543 0.0000
v  -1.6857 45.5543 1.6857
v  0.0000 45.5543 2.3839
v  1.6857 45.5543 1.6857
v  2.3839 45.5543 0.0000
v  0.0000 46.3914 -1.8245
v  1.2901 46.3914 -1.2901
v  -1.2901 46.3914 -1.2901
v  -1.8245 46.3914 0.0000
v  -1.2901 46.3914 1.2901
v  0.0000 46.3914 1.8245
v  1.2901 46.3914 1.2901
v  1.8245 46.3914 0.0000
v  0.0000 46.9508 -0.9874
v  0.6982 46.9508 -0.6982
v  -0.6982 46.9508 -0.6982
v  -0.9874 46.9508 0.0000
v  -0.6982 46.9508 0.6982
v  0.0000 46.9508 0.9874
v  0.6982 46.9508 0.6982
v  0.9874 46.9508 0.0000
v  0.0000 41.9866 0.0000
v  0.0000 47.1472 0.0000
# 58 vertices

vn 0.2988 -0.9063 -0.2988
vn 0.0000 -0.9063 -0.4226
vn 0.0000 -0.6839 -0.7296
vn 0.5159 -0.6839 -0.5159
vn -0.2988 -0.9063 -0.2988
vn -0.5159 -0.6839 -0.5159
vn -0.4226 -0.9063 -0.0000
vn -0.7296 -0.6839 -0.0000
vn -0.2988 -0.9063 0.2988
vn -0.5159 -0.6839 0.5159
vn 0.0000 -0.9063 0.4226
vn 0.0000 -0.6839 0.7296
vn 0.2988 -0.9063 0.2988
vn 0.5159 -0.6839 0.5159
vn 0.4226 -0.9063 -0.0000
vn 0.7296 -0.6839 -0.0000
vn 0.0000 -0.3668 -0.9303
vn 0.6578 -0.3668 -0.6578
vn -0.6578 -0.3668 -0.6578
vn -0.9303 -0.3668 -0.0000
vn -0.6578 -0.3668 0.6578
vn -0.0000 -0.3668 0.9303
vn 0.6578 -0.3668 0.6578
vn 0.9303 -0.3668 -0.0000
vn 0.0000 0.0000 -1.0000
vn 0.7071 0.0000 -0.7071
vn -0.7071 0.0000 -0.7071
vn -1.0000 0.0000 -0.0000
vn -0.7071 -0.0000 0.7071
vn 0.0000 -0.0000 1.0000
vn 0.7071 -0.0000 0.7071
vn 1.0000 -0.0000 -0.0000
vn 0.0000 0.3668 -0.9303
vn 0.6578 0.3668 -0.6578
vn -0.6578 0.3668 -0.6578
vn -0.9303 0.3668 0.0000
vn -0.6578 0.3668 0.6578
vn -0.0000 0.3668 0.9303
vn 0.6578 0.3668 0.6578
vn 0.9303 0.3668 0.0000
vn 0.0000 0.6839 -0.7296
vn 0.5159 0.6839 -0.5159
vn -0.5159 0.6839 -0.5159
vn -0.7296 0.6839 0.0000
vn -0.5159 0.6839 0.5159
vn 0.0000 0.6839 0.7296
vn 0.5159 0.6839 0.5159
vn 0.7296 0.6839 0.0000
vn 0.0000 0.9063 -0.4226
vn 0.2988 0.9063 -0.2988
vn -0.2988 0.9063 -0.2988
vn -0.4226 0.9063 0.0000
vn -0.2988 0.9063 0.2988
vn 0.0000 0.9063 0.4226
vn 0.2988 0.9063 0.2988
vn 0.4226 0.9063 0.0000
vn -0.0000 -1.0000 -0.0000
vn -0.0000 1.0000 0.0000
# 58 vertex normals

vt 0.0000 0.1250 0.0000
vt 0.1250 0.1250 0.0000
vt 0.1250 0.2500 0.0000
vt 0.0000 0.2500 0.0000
vt 0.2500 0.1250 0.0000
vt 0.2500 0.2500 0.0000
vt 0.3750 0.1250 0.0000
vt 0.3750 0.2500 0.0000
vt 0.5000 0.1250 0.0000
vt 0.5000 0.2500 0.0000
vt 0.6250 0.1250 0.0000
vt 0.6250 0.2500 0.0000
vt 0.7500 0.1250 0.0000
vt 0.7500 0.2500 0.0000
vt 0.8750 0.1250 0.0000
vt 0.8750 0.2500 0.0000
vt 1.0000 0.1250 0.0000
vt 1.0000 0.2500 0.0000
vt 0.1250 0.3750 0.0000
vt 0.0000 0.3750 0.0000
vt 0.2500 0.3750 0.0000
vt 0.3750 0.3750 0.0000
vt 0.5000 0.3750 0.0000
vt 0.6250 0.3750 0.0000
vt 0.7500 0.3750 0.0000
vt 0.8750 0.3750 0.0000
vt 1.0000 0.3750 0.0000
vt 0.1250 0.5000 0.0000
vt 0.0000 0.5000 0.0000
vt 0.2500 0.5000 0.0000
vt 0.3750 0.5000 0.0000
vt 0.5000 0.5000 0.0000
vt 0.6250 0.5000 0.0000
vt 0.7500 0.5000 0.0000
vt 0.8750 0.5000 0.0000
vt 1.0000 0.5000 0.0000
vt 0.1250 0.6250 0.0000
vt 0.0000 0.6250 0.0000
vt 0.2500 0.6250 0.0000
vt 0.3750 0.6250 0.0000
vt 0.5000 0.6250 0.0000
vt 0.6250 0.6250 0.0000
vt 0.7500 0.6250 0.0000
vt 0.8750 0.6250 0.0000
vt 1.0000 0.6250 0.0000
vt 0.1250 0.7500 0.0000
vt 0.0000 0.7500 0.0000
vt 0.2500 0.7500 0.0000
vt 0.3750 0.7500 0.0000
vt 0.5000 0.7500 0.0000
vt 0.6250 0.7500 0.0000
vt 0.7500 0.7500 0.0000
vt 0.8750 0.7500 0.0000
vt 1.0000 0.7500 0.0000
vt 0.1250 0.8750 0.0000
vt 0.0000 0.8750 0.0000
vt 0.2500 0.8750 0.0000
vt 0.3750 0.8750 0.0000
vt 0.5000 0.8750 0.0000
vt 0.6250 0.8750 0.0000
vt 0.7500 0.8750 0.0000
vt 0.8750 0.8750 0.0000
vt 1.0000 0.8750 0.0000
vt 0.0625 0.0000 0.0000
vt 0.1875 0.0000 0.0000
vt 0.3125 0.0000 0.0000
vt 0.4375 0.0000 0.0000
vt 0.5625 0.0000 0.0000
vt 0.6875 0.0000 0.0000
vt 0.8125 0.0000 0.0000
vt 0.9375 0.0000 0.0000
vt 0.0625 1.0000 0.0000
vt 0.1875 1.0000 0.0000
vt 0.3125 1.0000 0.0000
vt 0.4375 1.0000 0.0000
vt 0.5625 1.0000 0.0000
vt 0.6875 1.0000 0.0000
vt 0.8125 1.0000 0.0000
vt 0.9375 1.0000 0.0000
# 79 texture coords

o Object001
g Object001
s off
f 1/1/1 2/2/2 3/3/3 4/4/4 
f 2/2/2 5/5/5 6/6/6 3/3/3 
f 5/5/5 7/7/7 8/8/8 6/6/6 
f 7/7/7 9/9/9 10/10/10 8/8/8 
f 9/9/9 11/11/11 12/12/12 10/10/10 
f 11/11/11 13/13/13 14/14/14 12/12/12 
f 13/13/13 15/15/15 16/16/16 14/14/14 
f 15/15/15 1/17/1 4/18/4 16/16/16 
f 4/4/4 3/3/3 17/19/17 18/20/18 
f 3/3/3 6/6/6 19/21/19 17/19/17 
f 6/6/6 8/8/8 20/22/20 19/21/19 
f 8/8/8 10/10/10 21/23/21 20/22/20 
f 10/10/10 12/12/12 22/24/22 21/23/21 
f 12/12/12 14/14/14 23/25/23 22/24/22 
f 14/14/14 16/16/16 24/26/24 23/25/23 
f 16/16/16 4/18/4 18/27/18 24/26/24 
f 18/20/18 17/19/17 25/28/25 26/29/26 
f 17/19/17 19/21/19 27/30/27 25/28/25 
f 19/21/19 20/22/20 28/31/28 27/30/27 
f 20/22/20 21/23/21 29/32/29 28/31/28 
f 21/23/21 22/24/22 30/33/30 29/32/29 
f 22/24/22 23/25/23 31/34/31 30/33/30 
f 23/25/23 24/26/24 32/35/32 31/34/31 
f 24/26/24 18/27/18 26/36/26 32/35/32 
f 26/29/26 25/28/25 33/37/33 34/38/34 
f 25/28/25 27/30/27 35/39/35 33/37/33 
f 27/30/27 28/31/28 36/40/36 35/39/35 
f 28/31/28 29/32/29 37/41/37 36/40/36 
f 29/32/29 30/33/30 38/42/38 37/41/37 
f 30/33/30 31/34/31 39/43/39 38/42/38 
f 31/34/31 32/35/32 40/44/40 39/43/39 
f 32/35/32 26/36/26 34/45/34 40/44/40 
f 34/38/34 33/37/33 41/46/41 42/47/42 
f 33/37/33 35/39/35 43/48/43 41/46/41 
f 35/39/35 36/40/36 44/49/44 43/48/43 
f 36/40/36 37/41/37 45/50/45 44/49/44 
f 37/41/37 38/42/38 46/51/46 45/50/45 
f 38/42/38 39/43/39 47/52/47 46/51/46 
f 39/43/39 40/44/40 48/53/48 47/52/47 
f 40/44/40 34/45/34 42/54/42 48/53/48 
f 42/47/42 41/46/41 49/55/49 50/56/50 
f 41/46/41 43/48/43 51/57/51 49/55/49 
f 43/48/43 44/49/44 52/58/52 51/57/51 
f 44/49/44 45/50/45 53/59/53 52/58/52 
f 45/50/45 46/51/46 54/60/54 53/59/53 
f 46/51/46 47/52/47 55/61/55 54/60/54 
f 47/52/47 48/53/48 56/62/56 55/61/55 
f 48/53/48 42/54/42 50/63/50 56/62/56 
f 2/2/2 1/1/1 57/64/57 
f 5/5/5 2/2/2 57/65/57 
f 7/7/7 5/5/5 57/66/57 
f 9/9/9 7/7/7 57/67/57 
f 11/11/11 9/9/9 57/68/57 
f 13/13/13 11/11/11 57/69/57 
f 15/15/15 13/13/13 57/70/57 
f 1/17/1 15/15/15 57/71/57 
f 50/56/50 49/55/49 58/72/58 
f 49/55/49 51/57/51 58/73/58 
f 51/57/51 52/58/52 58/74/58 
f 52/58/52 53/59/53 58/75/58 
f 53/59/53 54/60/54 58/76/58 
f 54/60/54 55/61/55 58/77/58 
f 55/61/55 56/62/56 58/78/58 
f 56/62/56 50/63/50 58/79/58 
# 48 polygons - 16 triangles

